<?xml version="1.0" encoding="UTF-8" standalone="no"?>
<!DOCTYPE svg PUBLIC "-//W3C//DTD SVG 1.1//EN" "http://www.w3.org/Graphics/SVG/1.1/DTD/svg11.dtd">
<svg width="100%" height="100%" viewBox="0 0 1080 1080" version="1.1" xmlns="http://www.w3.org/2000/svg" xmlns:xlink="http://www.w3.org/1999/xlink" xml:space="preserve" xmlns:serif="http://www.serif.com/" style="fill-rule:evenodd;clip-rule:evenodd;stroke-linejoin:round;stroke-miterlimit:2;">
    <path d="M1080,0L1080,1080L0,1080L0,0L1080,0ZM540,115.507C305.716,115.507 115.507,305.716 115.507,540C115.507,774.284 305.716,964.493 540,964.493C774.284,964.493 964.493,774.284 964.493,540C964.493,305.716 774.284,115.507 540,115.507Z" style="fill:url(#_Radial1);"/>
    <path d="M1080,0L1080,1080L0,1080L0,0L1080,0ZM540,115.507C305.716,115.507 115.507,305.716 115.507,540C115.507,774.284 305.716,964.493 540,964.493C774.284,964.493 964.493,774.284 964.493,540C964.493,305.716 774.284,115.507 540,115.507Z" style="fill:url(#_Radial2);"/>
    <g transform="matrix(1,0,0,1,-339.413,-316.202)">
        <g transform="matrix(37.8153,26.1916,-26.1916,37.8153,1119.35,472.81)">
            <path d="M0.09,-0L0.09,-0.723L0.29,-0.723L0.463,-0.214L0.643,-0.723L0.817,-0.723L0.817,-0L0.679,-0L0.679,-0.545L0.502,-0.048L0.381,-0.048L0.208,-0.553L0.208,-0L0.09,-0Z" style="fill:white;fill-rule:nonzero;"/>
        </g>
        <g transform="matrix(35.6392,29.0835,-29.0835,35.6392,1153.56,496.783)">
            <path d="M0.09,-0L0.09,-0.723L0.542,-0.723L0.542,-0.624L0.241,-0.624L0.241,-0.422L0.488,-0.422L0.488,-0.325L0.241,-0.325L0.241,-0.103L0.565,-0.103L0.565,-0L0.09,-0Z" style="fill:white;fill-rule:nonzero;"/>
        </g>
        <g transform="matrix(33.6449,31.3691,-31.3691,33.6449,1175.07,514.118)">
            <path d="M0.09,-0L0.09,-0.723L0.361,-0.723C0.508,-0.723 0.581,-0.663 0.581,-0.543C0.581,-0.499 0.569,-0.458 0.544,-0.422C0.519,-0.385 0.485,-0.357 0.441,-0.337L0.677,-0L0.494,-0L0.315,-0.295L0.232,-0.295L0.232,-0L0.09,-0ZM0.232,-0.395L0.267,-0.395C0.376,-0.395 0.43,-0.439 0.43,-0.527C0.43,-0.591 0.382,-0.624 0.284,-0.624L0.232,-0.624L0.232,-0.395Z" style="fill:white;fill-rule:nonzero;"/>
        </g>
        <g transform="matrix(31.4442,33.5747,-33.5747,31.4442,1198.38,535.725)">
            <path d="M0.011,-0L0.292,-0.723L0.443,-0.723L0.724,-0L0.57,-0L0.495,-0.193L0.196,-0.193L0.121,-0L0.011,-0ZM0.233,-0.289L0.458,-0.289L0.345,-0.577L0.233,-0.289Z" style="fill:white;fill-rule:nonzero;"/>
        </g>
        <g transform="matrix(29.0702,35.65,-35.65,29.0702,1221.45,560.475)">
            <path d="M0.072,-0L0.072,-0.114L0.08,-0.125C0.118,-0.177 0.158,-0.22 0.199,-0.256L0.258,-0.308C0.355,-0.394 0.404,-0.469 0.404,-0.534C0.404,-0.61 0.361,-0.647 0.275,-0.647C0.222,-0.647 0.16,-0.63 0.09,-0.594L0.09,-0.7C0.164,-0.727 0.235,-0.741 0.304,-0.741C0.381,-0.741 0.442,-0.723 0.488,-0.686C0.535,-0.65 0.558,-0.601 0.558,-0.541C0.558,-0.499 0.546,-0.46 0.524,-0.426C0.501,-0.391 0.462,-0.351 0.405,-0.306L0.356,-0.267C0.288,-0.212 0.248,-0.161 0.235,-0.114L0.555,-0.114L0.555,-0L0.072,-0Z" style="fill:white;fill-rule:nonzero;"/>
        </g>
        <g transform="matrix(26.5236,37.5832,-37.5832,26.5236,1240.64,584.016)">
            <path d="M0.124,-0.003L0.124,-0.108C0.186,-0.084 0.237,-0.072 0.278,-0.072C0.319,-0.072 0.352,-0.085 0.376,-0.109C0.4,-0.134 0.413,-0.167 0.413,-0.209C0.413,-0.313 0.338,-0.364 0.189,-0.364C0.172,-0.364 0.154,-0.363 0.137,-0.36L0.137,-0.723L0.552,-0.723L0.552,-0.608L0.242,-0.608L0.235,-0.453C0.339,-0.453 0.42,-0.431 0.479,-0.389C0.537,-0.346 0.566,-0.286 0.566,-0.21C0.566,-0.139 0.541,-0.084 0.49,-0.043C0.439,-0.002 0.369,0.018 0.28,0.018C0.242,0.018 0.19,0.011 0.124,-0.003Z" style="fill:white;fill-rule:nonzero;"/>
        </g>
    </g>
    <defs>
        <radialGradient id="_Radial1" cx="0" cy="0" r="1" gradientUnits="userSpaceOnUse" gradientTransform="matrix(967.059,0,0,967.059,536.919,540)"><stop offset="0" style="stop-color:rgb(235,82,38);stop-opacity:1"/><stop offset="1" style="stop-color:rgb(255,26,52);stop-opacity:1"/></radialGradient>
        <radialGradient id="_Radial2" cx="0" cy="0" r="1" gradientUnits="userSpaceOnUse" gradientTransform="matrix(967.059,0,0,967.059,536.919,540)"><stop offset="0" style="stop-color:rgb(255,26,52);stop-opacity:1"/><stop offset="1" style="stop-color:rgb(235,82,38);stop-opacity:1"/></radialGradient>
    </defs>
</svg>
