<svg viewBox="0 0 1080 1080" fill="none" xmlns="http://www.w3.org/2000/svg">      <defs>  <filter id="filter" x="-20%" y="-20%" width="140%" height="140%" filterUnits="objectBoundingBox" primitiveUnits="userSpaceOnUse" color-interpolation-filters="linearRGB">    <feMorphology operator="dilate" radius="20 20" in="SourceAlpha" result="morphology"/>    <feFlood flood-color="#ffffff" flood-opacity="1" result="flood"/>    <feComposite in="flood" in2="morphology" operator="in" result="composite"/>    <feMerge result="merge">          <feMergeNode in="composite" result="mergeNode"/>      <feMergeNode in="SourceGraphic" result="mergeNode1"/>      </feMerge>  </filter></defs>      <g id="notion-avatar" filter="url(#filter)">        <g id="notion-avatar-face" fill="#ffffff">      <!--?xml version="1.0" encoding="UTF-8"?-->    <title>Face/ 9</title>    <g id="Face/-9" stroke="none" stroke-width="1" fill-rule="evenodd" stroke-linecap="round" stroke-linejoin="round">        <path d="M532,379 C664.54834,379 772,486.45166 772,619 C772,751.54834 704.54834,919 592,919 C506.683174,919 378.324367,822.776611 321.205121,718.475443 C318.188736,718.821948 315.115161,719 312,719 C267.81722,719 232,683.18278 232,639 C232,599.134956 261.158843,566.080325 299.312086,560.00055 C325.599297,455.979213 419.809919,379 532,379 Z M295.858895,624.545187 L304.141105,655.454813" id="Path" stroke="#000000" stroke-width="24"/>    </g>    </g><g id="notion-avatar-nose">      <!--?xml version="1.0" encoding="UTF-8"?-->    <title>Nose/ 1</title>    <g id="Nose/-1" stroke="none" stroke-width="1" fill="none" fill-rule="evenodd" stroke-linecap="round" stroke-linejoin="round">        <path d="M633.532552,569.006852 C651.291821,622.395473 661.086671,652.555363 662.917104,659.486521 C664.747537,666.41768 663.749048,673.591123 659.921638,681.006852" id="Line" stroke="#000000" stroke-width="16" transform="translate(648.668966, 625.006852) rotate(-3.225647) translate(-648.668966, -625.006852) "/>    </g>    </g><g id="notion-avatar-mouth">      <g id="Mouth/ 13"><g id="Group"><path id="Path" d="M528 765C528 765 599.931 769.393 623.066 764.87C646.202 760.346 687 744 687 744" stroke="black" stroke-width="16" stroke-linecap="round" stroke-linejoin="round"/><path id="Path_2" d="M668 756C668 756 668 785.043 638.943 793.34C609.886 801.638 555 768.447 555 768.447" stroke="black" stroke-width="16" stroke-linecap="round" stroke-linejoin="round"/><path id="Path_3" d="M505.348 782.386C505.348 782.386 499.053 772.522 503.446 759.4C507.839 746.278 519.439 740.299 519.439 740.299" stroke="black" stroke-width="6" stroke-linecap="round" stroke-linejoin="round"/><path id="Path_4" d="M711.499 747.668C711.499 747.668 714.478 743.128 712.342 737.053C710.205 730.977 704.647 728.182 704.647 728.182" stroke="black" stroke-width="6" stroke-linecap="round" stroke-linejoin="round"/></g></g>    </g><g id="notion-avatar-eyes">      <!--?xml version="1.0" encoding="UTF-8"?-->    <title>Eyes/ 4</title>    <g id="Eyes/-4" stroke="none" stroke-width="1" fill="none" fill-rule="evenodd">        <path d="M570,516 C583.254834,516 594,526.745166 594,540 C594,553.254834 583.254834,564 570,564 C556.745166,564 546,553.254834 546,540 C546,526.745166 556.745166,516 570,516 Z M708,516 C721.254834,516 732,526.745166 732,540 C732,553.254834 721.254834,564 708,564 C694.745166,564 684,553.254834 684,540 C684,526.745166 694.745166,516 708,516 Z M562,526 C558.686292,526 556,528.686292 556,532 C556,535.313708 558.686292,538 562,538 C565.313708,538 568,535.313708 568,532 C568,528.686292 565.313708,526 562,526 Z M700,526 C696.686292,526 694,528.686292 694,532 C694,535.313708 696.686292,538 700,538 C703.313708,538 706,535.313708 706,532 C706,528.686292 703.313708,526 700,526 Z" id="Combined-Shape" fill="#000000"/>    </g>    </g><g id="notion-avatar-eyebrows">      <!--?xml version="1.0" encoding="UTF-8"?-->    <title>Eyebrows/ 5</title>    <g id="Eyebrows/-5" stroke="none" stroke-width="1" fill="none" fill-rule="evenodd" stroke-linecap="round" stroke-linejoin="round">        <g id="Group" transform="translate(517.000000, 471.000000)" stroke="#000000" stroke-width="24">            <line x1="1" y1="27.4172651" x2="76.8548788" y2="2" id="Path" transform="translate(38.927439, 14.708633) rotate(2.524843) translate(-38.927439, -14.708633) "/>            <line x1="166" y1="27.4172651" x2="241.854879" y2="2" id="Path" transform="translate(203.927439, 14.708633) scale(-1, 1) rotate(2.524843) translate(-203.927439, -14.708633) "/>        </g>    </g>    </g><g id="notion-avatar-glasses">      <!--?xml version="1.0" encoding="UTF-8"?-->    <title>Glasses/ 3</title>    <g id="Glasses/-3" stroke="none" stroke-width="1" fill="none" fill-rule="evenodd" stroke-linecap="round" stroke-linejoin="round">        <g id="Group" transform="translate(293.000000, 488.000000)" stroke="#000000" stroke-width="8">            <path d="M197.493245,10.4280671 C174.636102,27.3582996 188.604356,103.544346 244.477372,103.544346 C300.350388,103.544346 337.149222,42.6997481 325.747213,20.1024857 C314.345204,-2.49477675 220.350388,-6.50216547 197.493245,10.4280671 Z" id="Path"/>            <path d="M376.540864,10.4280671 C353.683721,27.3582996 367.651975,103.544346 423.524991,103.544346 C479.398007,103.544346 516.196841,42.6997481 504.794832,20.1024857 C493.392823,-2.49477675 399.398007,-6.50216547 376.540864,10.4280671 Z" id="Path" transform="translate(436.458153, 51.772173) scale(-1, 1) translate(-436.458153, -51.772173) "/>            <line x1="301.285714" y1="5.44186047" x2="392.714286" y2="5.44186047" id="Path"/>            <line x1="326.68254" y1="21.1627907" x2="367.31746" y2="21.1627907" id="Path"/>            <line x1="186.554557" y1="30.8015819" x2="1.25992802" y2="69.9860126" id="Path" transform="translate(94.259928, 50.646655) rotate(1.361411) translate(-94.259928, -50.646655) "/>        </g>    </g>    </g><g id="notion-avatar-hair">      <!--?xml version="1.0" encoding="UTF-8"?-->    <title>Hairstyle/ 7</title>    <g id="Hairstyle/-7" stroke="none" stroke-width="1" fill="none" fill-rule="evenodd" stroke-linecap="round" stroke-linejoin="round">        <path d="M429,249 C452,238 567.078089,210.731301 629,239 C751.666667,295 808,414 798,596 C706.666667,504.666667 636.333333,456.666667 587,452 C583.849456,451.701976 580.427025,451.181996 576.732706,450.440062 L578.623143,452.186178 C595.446627,467.677375 615.572664,484.948764 639,504 C565.154464,479.561802 512.897321,455.171558 482.228571,430.829268 C471.250239,422.115586 460.817679,411.645571 450.930891,399.419222 C448.886906,440.886337 443.90983,479.746614 436,516 C428.08,552.3 405.1318,598.0743 367.1554,653.3229 L366,655 L328.116663,564.824988 L287.145773,564.824988 C261.048591,494.941663 255,439.333333 269,398 C283,356.666667 311.333333,337.666667 354,341 C365.105394,298.268435 390.105394,267.601768 429,249 Z" id="Path" stroke="#000000" stroke-width="12" fill="#000000"/>    </g>    </g><g id="notion-avatar-accessories">      <!--?xml version="1.0" encoding="UTF-8"?-->    <title>Accessories/ 0</title>    <g id="Accessories/-0" stroke="none" stroke-width="1" fill="none" fill-rule="evenodd"/>    </g><g id="notion-avatar-details">      <!--?xml version="1.0" encoding="UTF-8"?-->    <title>Details/ 0</title>    <g id="Details/-0" stroke="none" stroke-width="1" fill="none" fill-rule="evenodd"/>    </g><g id="notion-avatar-beard">      <!--?xml version="1.0" encoding="UTF-8"?-->    <title>Beard/ 0</title>    <g id="Beard/-0" stroke="none" stroke-width="1" fill="none" fill-rule="evenodd"/>    </g>      </g>      </svg>